<?xml version="1.0" encoding="UTF-8" standalone="no"?>
<!DOCTYPE svg PUBLIC "-//W3C//DTD SVG 1.1//EN"
 "http://www.w3.org/Graphics/SVG/1.1/DTD/svg11.dtd">
<!-- Generated by graphviz version 2.40.1 (20161225.0304)
 -->
<!-- Title: G Pages: 1 -->
<svg width="325pt" height="504pt"
 viewBox="0.00 0.00 324.66 504.00" xmlns="http://www.w3.org/2000/svg" xmlns:xlink="http://www.w3.org/1999/xlink">
<g id="graph0" class="graph" transform="scale(.0875 .0875) rotate(0) translate(4 5757)">
<title>G</title>
<polygon fill="#ffffff" stroke="transparent" points="-4,4 -4,-5757 3707,-5757 3707,4 -4,4"/>
<g id="clust1" class="cluster">
<title>cluster0</title>
<polygon fill="none" stroke="#0000ff" points="8,-8 8,-5745 3695,-5745 3695,-8 8,-8"/>
<text text-anchor="middle" x="1851.5" y="-5729.8" font-family="Times,serif" font-size="14.00" fill="#000000">PeeringMachine</text>
</g>
<g id="clust2" class="cluster">
<title>cluster1</title>
<polygon fill="none" stroke="#0000ff" points="394,-16 394,-5714 3589,-5714 3589,-16 394,-16"/>
<text text-anchor="middle" x="1991.5" y="-5698.8" font-family="Times,serif" font-size="14.00" fill="#000000">Started</text>
</g>
<g id="clust3" class="cluster">
<title>cluster2</title>
<polygon fill="none" stroke="#0000ff" points="402,-24 402,-5426 1819,-5426 1819,-24 402,-24"/>
<text text-anchor="middle" x="1110.5" y="-5410.8" font-family="Times,serif" font-size="14.00" fill="#000000">Primary</text>
</g>
<g id="clust4" class="cluster">
<title>cluster3</title>
<polygon fill="none" stroke="#0000ff" points="616,-2999 616,-5395 957,-5395 957,-2999 616,-2999"/>
<text text-anchor="middle" x="786.5" y="-5379.8" font-family="Times,serif" font-size="14.00" fill="#000000">Peering</text>
</g>
<g id="clust5" class="cluster">
<title>cluster4</title>
<polygon fill="none" stroke="#0000ff" points="965,-32 965,-4972 1811,-4972 1811,-32 965,-32"/>
<text text-anchor="middle" x="1388" y="-4956.8" font-family="Times,serif" font-size="14.00" fill="#000000">Active</text>
</g>
<g id="clust6" class="cluster">
<title>cluster5</title>
<polygon fill="none" stroke="#0000ff" points="2224,-4696 2224,-5683 3581,-5683 3581,-4696 2224,-4696"/>
<text text-anchor="middle" x="2902.5" y="-5667.8" font-family="Times,serif" font-size="14.00" fill="#000000">ReplicaActive</text>
</g>
<g id="clust7" class="cluster">
<title>cluster6</title>
<polygon fill="none" stroke="#0000ff" points="1827,-4495 1827,-4972 2216,-4972 2216,-4495 1827,-4495"/>
<text text-anchor="middle" x="2021.5" y="-4956.8" font-family="Times,serif" font-size="14.00" fill="#000000">ToDelete</text>
</g>
<!-- Crashed -->
<g id="node1" class="node">
<title>Crashed</title>
<ellipse fill="none" stroke="#000000" cx="137" cy="-3904" rx="50.0912" ry="18"/>
<text text-anchor="middle" x="137" y="-3900.3" font-family="Times,serif" font-size="14.00" fill="#000000">Crashed</text>
</g>
<!-- Initial -->
<g id="node2" class="node">
<title>Initial</title>
<polygon fill="none" stroke="#000000" points="332,-5541 277.5385,-5523 332,-5505 386.4615,-5523 332,-5541"/>
<polyline fill="none" stroke="#000000" points="288.9323,-5526.7658 288.9323,-5519.2342 "/>
<polyline fill="none" stroke="#000000" points="320.6062,-5508.7658 343.3938,-5508.7658 "/>
<polyline fill="none" stroke="#000000" points="375.0677,-5519.2342 375.0677,-5526.7658 "/>
<polyline fill="none" stroke="#000000" points="343.3938,-5537.2342 320.6062,-5537.2342 "/>
<text text-anchor="middle" x="332" y="-5519.3" font-family="Times,serif" font-size="14.00" fill="#000000">Initial</text>
</g>
<!-- Initial&#45;&gt;Crashed -->
<g id="edge12" class="edge">
<title>Initial&#45;&gt;Crashed</title>
<path fill="none" stroke="#000000" d="M320.487,-5508.5257C312.0269,-5496.4192 302,-5478.3132 302,-5460.5 302,-5460.5 302,-5460.5 302,-4810.5 302,-4757.6611 307.8738,-4732.8447 270,-4696 231.9088,-4658.9438 187.614,-4708.1607 154,-4667 128.3228,-4635.558 146,-4525.0945 146,-4484.5 146,-4484.5 146,-4484.5 146,-4117.5 146,-4051.0915 141.5996,-3973.167 138.9527,-3932.3002"/>
<polygon fill="#000000" stroke="#000000" points="142.4415,-3932.0143 138.2895,-3922.2669 135.4568,-3932.476 142.4415,-3932.0143"/>
<text text-anchor="middle" x="260" y="-4655.8" font-family="Times,serif" font-size="14.00" fill="#000000">boost::statechart::event_base</text>
</g>
<!-- Reset -->
<g id="node3" class="node">
<title>Reset</title>
<ellipse fill="none" stroke="#000000" cx="349" cy="-4029" rx="37.0935" ry="18"/>
<text text-anchor="middle" x="349" y="-4025.3" font-family="Times,serif" font-size="14.00" fill="#000000">Reset</text>
</g>
<!-- Initial&#45;&gt;Reset -->
<g id="edge27" class="edge">
<title>Initial&#45;&gt;Reset</title>
<path fill="none" stroke="#000000" d="M327.817,-5506.1395C325.0768,-5493.6272 322,-5476.104 322,-5460.5 322,-5460.5 322,-5460.5 322,-4758.5 322,-4712.5774 359.0144,-4711.5893 370,-4667 412.5877,-4494.1418 363,-4444.5272 363,-4266.5 363,-4266.5 363,-4266.5 363,-4091.5 363,-4079.8713 360.6637,-4067.3136 357.8999,-4056.5263"/>
<polygon fill="#000000" stroke="#000000" points="361.2475,-4055.5009 355.1814,-4046.8146 354.5066,-4057.3879 361.2475,-4055.5009"/>
<text text-anchor="middle" x="388" y="-4718.3" font-family="Times,serif" font-size="14.00" fill="#000000">Initialize</text>
</g>
<!-- GetInfo -->
<g id="node6" class="node">
<title>GetInfo</title>
<polygon fill="none" stroke="#000000" points="814,-5364 748.9788,-5346 814,-5328 879.0212,-5346 814,-5364"/>
<polyline fill="none" stroke="#000000" points="760.5438,-5349.2016 760.5438,-5342.7984 "/>
<polyline fill="none" stroke="#000000" points="802.435,-5331.2016 825.565,-5331.2016 "/>
<polyline fill="none" stroke="#000000" points="867.4562,-5342.7984 867.4562,-5349.2016 "/>
<polyline fill="none" stroke="#000000" points="825.565,-5360.7984 802.435,-5360.7984 "/>
<text text-anchor="middle" x="814" y="-5342.3" font-family="Times,serif" font-size="14.00" fill="#000000">GetInfo</text>
</g>
<!-- Initial&#45;&gt;GetInfo -->
<g id="edge16" class="edge">
<title>Initial&#45;&gt;GetInfo</title>
<path fill="none" stroke="#000000" d="M330.8542,-5505.3235C330.8421,-5489.4989 333.4915,-5466.7346 347,-5453 373.2324,-5426.3286 391.8889,-5438.7198 429,-5434 444.8897,-5431.9792 681.4827,-5433.2412 734.9926,-5427.7762"/>
<polygon fill="#000000" stroke="#000000" points="735.7655,-5431.1938 745,-5426 734.5422,-5424.3015 735.7655,-5431.1938"/>
<text text-anchor="middle" x="390.5" y="-5456.8" font-family="Times,serif" font-size="14.00" fill="#000000">MNotifyRec</text>
</g>
<!-- Stray -->
<g id="node27" class="node">
<title>Stray</title>
<ellipse fill="none" stroke="#000000" cx="1879" cy="-5346" rx="36.2938" ry="18"/>
<text text-anchor="middle" x="1879" y="-5342.3" font-family="Times,serif" font-size="14.00" fill="#000000">Stray</text>
</g>
<!-- Initial&#45;&gt;Stray -->
<g id="edge19" class="edge">
<title>Initial&#45;&gt;Stray</title>
<path fill="none" stroke="#000000" d="M359.3047,-5514.0191C368.953,-5510.9807 379.9125,-5507.6813 390,-5505 492.9619,-5477.6326 519.9858,-5476.0471 624,-5453 662.217,-5444.532 671.1598,-5438.8666 710,-5434 820.7462,-5420.1236 849.5846,-5432.6252 961,-5426 1296.0727,-5406.0752 1698.5563,-5365.0715 1832.8669,-5350.9259"/>
<polygon fill="#000000" stroke="#000000" points="1833.605,-5354.3675 1843.1821,-5349.8367 1832.8699,-5347.4062 1833.605,-5354.3675"/>
<text text-anchor="middle" x="658.5" y="-5456.8" font-family="Times,serif" font-size="14.00" fill="#000000">MLogRec</text>
</g>
<!-- Initial&#45;&gt;Stray -->
<g id="edge45" class="edge">
<title>Initial&#45;&gt;Stray</title>
<path fill="none" stroke="#000000" d="M358.2807,-5513.6567C368.1212,-5510.4743 379.4682,-5507.175 390,-5505 462.636,-5489.9997 1589.2569,-5375.3682 1832.8081,-5350.6768"/>
<polygon fill="#000000" stroke="#000000" points="1833.4822,-5354.1265 1843.0783,-5349.6359 1832.7763,-5347.1622 1833.4822,-5354.1265"/>
<text text-anchor="middle" x="869" y="-5456.8" font-family="Times,serif" font-size="14.00" fill="#000000">MInfoRec</text>
</g>
<!-- Reset&#45;&gt;Crashed -->
<g id="edge13" class="edge">
<title>Reset&#45;&gt;Crashed</title>
<path fill="none" stroke="#000000" d="M325.093,-4014.9039C287.6872,-3992.8486 215.1389,-3950.0725 171.8933,-3924.5739"/>
<polygon fill="#000000" stroke="#000000" points="173.525,-3921.4729 163.1332,-3919.4087 169.9696,-3927.5028 173.525,-3921.4729"/>
<text text-anchor="middle" x="359" y="-3962.8" font-family="Times,serif" font-size="14.00" fill="#000000">boost::statechart::event_base</text>
</g>
<!-- Start -->
<g id="node4" class="node">
<title>Start</title>
<polygon fill="none" stroke="#000000" points="814,-5652 765.0684,-5634 814,-5616 862.9316,-5634 814,-5652"/>
<polyline fill="none" stroke="#000000" points="776.3305,-5638.1429 776.3305,-5629.8571 "/>
<polyline fill="none" stroke="#000000" points="802.7378,-5620.1429 825.2622,-5620.1429 "/>
<polyline fill="none" stroke="#000000" points="851.6695,-5629.8571 851.6695,-5638.1429 "/>
<polyline fill="none" stroke="#000000" points="825.2622,-5647.8571 802.7378,-5647.8571 "/>
<text text-anchor="middle" x="814" y="-5630.3" font-family="Times,serif" font-size="14.00" fill="#000000">Start</text>
</g>
<!-- Reset&#45;&gt;Start -->
<g id="edge34" class="edge">
<title>Reset&#45;&gt;Start</title>
<path fill="none" stroke="#000000" d="M314.1563,-4035.3306C251.4375,-4047.7255 126,-4077.5135 126,-4117.5 126,-4209.5 126,-4209.5 126,-4209.5 126,-4234.8372 125,-4241.1628 125,-4266.5 125,-4595.5 125,-4595.5 125,-4595.5 125,-4628.1636 119.2395,-4643.572 142,-4667 176.6319,-4702.6476 219.7548,-4656.562 250,-4696 281.6415,-4737.2586 226,-4758.5052 226,-4810.5 226,-5578.5 226,-5578.5 226,-5578.5 226,-5589.661 294.0335,-5599.6507 383.8172,-5607.9745"/>
<polygon fill="#000000" stroke="#000000" points="383.7271,-5611.4807 394.0037,-5608.9036 384.3629,-5604.5097 383.7271,-5611.4807"/>
<text text-anchor="middle" x="261.5" y="-4780.8" font-family="Times,serif" font-size="14.00" fill="#000000">ActMap</text>
</g>
<!-- Start&#45;&gt;Crashed -->
<g id="edge14" class="edge">
<title>Start&#45;&gt;Crashed</title>
<path fill="none" stroke="#000000" d="M394.004,-5621.1977C209.4987,-5612.6516 34,-5599.1067 34,-5578.5 34,-5578.5 34,-5578.5 34,-3966.5 34,-3940.4413 58.3939,-3924.9438 83.4389,-3915.8996"/>
<polygon fill="#000000" stroke="#000000" points="84.6187,-3919.196 93.02,-3912.7408 82.4269,-3912.548 84.6187,-3919.196"/>
<text text-anchor="middle" x="140" y="-4718.3" font-family="Times,serif" font-size="14.00" fill="#000000">boost::statechart::event_base</text>
</g>
<!-- Start&#45;&gt;Reset -->
<g id="edge59" class="edge">
<title>Start&#45;&gt;Reset</title>
<path fill="none" stroke="#000000" d="M394,-4029.2606C392.0238,-4029.2462 390.0477,-4029.2319 388.0715,-4029.2176"/>
<polygon fill="#000000" stroke="#000000" points="396.1206,-4025.7764 386.0953,-4029.2032 396.0695,-4032.7762 396.1206,-4025.7764"/>
<text text-anchor="middle" x="3657" y="-4780.8" font-family="Times,serif" font-size="14.00" fill="#000000">AdvMap</text>
</g>
<!-- Start&#45;&gt;GetInfo -->
<g id="edge11" class="edge">
<title>Start&#45;&gt;GetInfo</title>
<path fill="none" stroke="#000000" d="M814,-5615.5C814,-5604.7083 814,-5590.8333 814,-5578.5 814,-5578.5 814,-5578.5 814,-5460.5 814,-5452.5678 814,-5444.3264 814,-5436.065"/>
<polygon fill="#000000" stroke="#000000" points="817.5001,-5435.9975 814,-5425.9975 810.5001,-5435.9975 817.5001,-5435.9975"/>
<text text-anchor="middle" x="863" y="-5519.3" font-family="Times,serif" font-size="14.00" fill="#000000">MakePrimary</text>
</g>
<!-- Start&#45;&gt;Stray -->
<g id="edge65" class="edge">
<title>Start&#45;&gt;Stray</title>
<path fill="none" stroke="#000000" d="M858.445,-5632.3355C1000.1469,-5626.7382 1432,-5607.316 1432,-5578.5 1432,-5578.5 1432,-5578.5 1432,-5460.5 1432,-5378.5429 1717.5559,-5354.4512 1832.1969,-5348.0816"/>
<polygon fill="#000000" stroke="#000000" points="1832.621,-5351.564 1842.4201,-5347.5357 1832.2477,-5344.574 1832.621,-5351.564"/>
<text text-anchor="middle" x="1471.5" y="-5519.3" font-family="Times,serif" font-size="14.00" fill="#000000">MakeStray</text>
</g>
<!-- WaitActingChange -->
<g id="node5" class="node">
<title>WaitActingChange</title>
<ellipse fill="none" stroke="#000000" cx="508" cy="-4154" rx="98.2828" ry="18"/>
<text text-anchor="middle" x="508" y="-4150.3" font-family="Times,serif" font-size="14.00" fill="#000000">WaitActingChange</text>
</g>
<!-- WaitActingChange&#45;&gt;Reset -->
<g id="edge62" class="edge">
<title>WaitActingChange&#45;&gt;Reset</title>
<path fill="none" stroke="#000000" d="M485.78,-4136.1521C463.2477,-4118.0985 427.3303,-4089.4439 396,-4065 389.983,-4060.3055 383.5026,-4055.3058 377.3337,-4050.5728"/>
<polygon fill="#000000" stroke="#000000" points="379.2558,-4047.6364 369.1875,-4044.3378 375.0012,-4053.1951 379.2558,-4047.6364"/>
<text text-anchor="middle" x="468" y="-4087.8" font-family="Times,serif" font-size="14.00" fill="#000000">AdvMap</text>
</g>
<!-- GetInfo&#45;&gt;Reset -->
<g id="edge60" class="edge">
<title>GetInfo&#45;&gt;Reset</title>
<path fill="none" stroke="#000000" d="M616.0044,-4030.7566C517.4222,-4030.0521 441.7824,-4029.565 396.5917,-4029.2854"/>
<polygon fill="#000000" stroke="#000000" points="396.333,-4025.7838 386.3116,-4029.2222 396.2899,-4032.7837 396.333,-4025.7838"/>
<text text-anchor="middle" x="3592" y="-4655.8" font-family="Times,serif" font-size="14.00" fill="#000000">AdvMap</text>
</g>
<!-- GetLog -->
<g id="node7" class="node">
<title>GetLog</title>
<ellipse fill="none" stroke="#000000" cx="672" cy="-4521" rx="44.6926" ry="18"/>
<text text-anchor="middle" x="672" y="-4517.3" font-family="Times,serif" font-size="14.00" fill="#000000">GetLog</text>
</g>
<!-- GetInfo&#45;&gt;GetLog -->
<g id="edge58" class="edge">
<title>GetInfo&#45;&gt;GetLog</title>
<path fill="none" stroke="#000000" d="M782.2318,-5336.7115C740.926,-5324.1719 674,-5302.0695 674,-5290.5 674,-5290.5 674,-5290.5 674,-4576.5 674,-4567.7261 673.7473,-4558.177 673.4215,-4549.5125"/>
<polygon fill="#000000" stroke="#000000" points="676.9174,-4549.338 673,-4539.494 669.9236,-4549.6323 676.9174,-4549.338"/>
<text text-anchor="middle" x="701.5" y="-4919.3" font-family="Times,serif" font-size="14.00" fill="#000000">GotInfo</text>
</g>
<!-- Down -->
<g id="node10" class="node">
<title>Down</title>
<ellipse fill="none" stroke="#000000" cx="815" cy="-4521" rx="37.0935" ry="18"/>
<text text-anchor="middle" x="815" y="-4517.3" font-family="Times,serif" font-size="14.00" fill="#000000">Down</text>
</g>
<!-- GetInfo&#45;&gt;Down -->
<g id="edge47" class="edge">
<title>GetInfo&#45;&gt;Down</title>
<path fill="none" stroke="#000000" d="M794.9159,-5333.0517C782.6512,-5323.0507 769,-5307.9906 769,-5290.5 769,-5290.5 769,-5290.5 769,-4576.5 769,-4563.4651 776.6146,-4551.8498 785.6477,-4542.6566"/>
<polygon fill="#000000" stroke="#000000" points="788.0872,-4545.1681 793.0778,-4535.8223 783.3483,-4540.0161 788.0872,-4545.1681"/>
<text text-anchor="middle" x="796.5" y="-4919.3" font-family="Times,serif" font-size="14.00" fill="#000000">IsDown</text>
</g>
<!-- Activating -->
<g id="node22" class="node">
<title>Activating</title>
<polygon fill="none" stroke="#000000" points="1211,-4941 1127.2131,-4923 1211,-4905 1294.7869,-4923 1211,-4941"/>
<polyline fill="none" stroke="#000000" points="1138.9455,-4925.5205 1138.9455,-4920.4795 "/>
<polyline fill="none" stroke="#000000" points="1199.2677,-4907.5205 1222.7323,-4907.5205 "/>
<polyline fill="none" stroke="#000000" points="1283.0545,-4920.4795 1283.0545,-4925.5205 "/>
<polyline fill="none" stroke="#000000" points="1222.7323,-4938.4795 1199.2677,-4938.4795 "/>
<text text-anchor="middle" x="1211" y="-4919.3" font-family="Times,serif" font-size="14.00" fill="#000000">Activating</text>
</g>
<!-- GetInfo&#45;&gt;Activating -->
<g id="edge56" class="edge">
<title>GetInfo&#45;&gt;Activating</title>
<path fill="none" stroke="#000000" d="M956.997,-5302.5347C971.4848,-5297.2155 981,-5292.8337 981,-5290.5 981,-5290.5 981,-5290.5 981,-4999.5 981,-4990.553 979.6644,-4986.3174 986,-4980 986.7782,-4979.224 987.6254,-4978.4552 988.5383,-4977.6937"/>
<polygon fill="#000000" stroke="#000000" points="990.5379,-4980.5663 996.7692,-4971.9977 986.5545,-4974.8102 990.5379,-4980.5663"/>
<text text-anchor="middle" x="1011.5" y="-5141.3" font-family="Times,serif" font-size="14.00" fill="#000000">Activate</text>
</g>
<!-- GetLog&#45;&gt;Reset -->
<g id="edge61" class="edge">
<title>GetLog&#45;&gt;Reset</title>
<path fill="none" stroke="#000000" d="M647.9589,-4505.5366C640.2784,-4501.3512 631.5463,-4497.3362 623,-4495 599.6104,-4488.6063 423.8113,-4500.2998 405,-4485 398.0589,-4479.3546 400,-4474.447 400,-4465.5 400,-4465.5 400,-4465.5 400,-4318.5 400,-4261.7196 385.083,-4119.1496 368,-4065 367.0007,-4061.8324 365.7279,-4058.6144 364.3157,-4055.4714"/>
<polygon fill="#000000" stroke="#000000" points="367.3854,-4053.784 359.7951,-4046.3923 361.1192,-4056.9041 367.3854,-4053.784"/>
<text text-anchor="middle" x="429" y="-4288.8" font-family="Times,serif" font-size="14.00" fill="#000000">AdvMap</text>
</g>
<!-- GetLog&#45;&gt;WaitActingChange -->
<g id="edge5" class="edge">
<title>GetLog&#45;&gt;WaitActingChange</title>
<path fill="none" stroke="#000000" d="M646.9391,-4505.9641C639.4382,-4501.9458 631.06,-4497.9151 623,-4495 592.8967,-4484.1123 482,-4497.5118 482,-4465.5 482,-4465.5 482,-4465.5 482,-4209.5 482,-4199.6544 485.3968,-4189.6753 489.7349,-4180.9455"/>
<polygon fill="#000000" stroke="#000000" points="492.8925,-4182.4689 494.6953,-4172.0286 486.7753,-4179.0659 492.8925,-4182.4689"/>
<text text-anchor="middle" x="552.5" y="-4340.8" font-family="Times,serif" font-size="14.00" fill="#000000">NeedActingChange</text>
</g>
<!-- GetMissing -->
<g id="node8" class="node">
<title>GetMissing</title>
<ellipse fill="none" stroke="#000000" cx="688" cy="-3703" rx="63.8893" ry="18"/>
<text text-anchor="middle" x="688" y="-3699.3" font-family="Times,serif" font-size="14.00" fill="#000000">GetMissing</text>
</g>
<!-- GetLog&#45;&gt;GetMissing -->
<g id="edge15" class="edge">
<title>GetLog&#45;&gt;GetMissing</title>
<path fill="none" stroke="#000000" d="M657,-4503.7649C649.5,-4493.3948 642,-4479.5198 642,-4465.5 642,-4465.5 642,-4465.5 642,-3758.5 642,-3746.4976 648.4561,-3735.6987 656.531,-3726.8862"/>
<polygon fill="#000000" stroke="#000000" points="659.2101,-3729.1621 663.9222,-3719.6728 654.321,-3724.1525 659.2101,-3729.1621"/>
<text text-anchor="middle" x="668.5" y="-4150.3" font-family="Times,serif" font-size="14.00" fill="#000000">GotLog</text>
</g>
<!-- Incomplete -->
<g id="node11" class="node">
<title>Incomplete</title>
<ellipse fill="none" stroke="#000000" cx="833" cy="-3703" rx="63.8893" ry="18"/>
<text text-anchor="middle" x="833" y="-3699.3" font-family="Times,serif" font-size="14.00" fill="#000000">Incomplete</text>
</g>
<!-- GetLog&#45;&gt;Incomplete -->
<g id="edge54" class="edge">
<title>GetLog&#45;&gt;Incomplete</title>
<path fill="none" stroke="#000000" d="M700.8087,-4507.1864C715.7855,-4497.8079 731,-4483.7816 731,-4465.5 731,-4465.5 731,-4465.5 731,-3758.5 731,-3745.4377 757.1358,-3731.3786 782.9478,-3720.6788"/>
<polygon fill="#000000" stroke="#000000" points="784.4112,-3723.8631 792.3938,-3716.8969 781.8093,-3717.3646 784.4112,-3723.8631"/>
<text text-anchor="middle" x="778.5" y="-4150.3" font-family="Times,serif" font-size="14.00" fill="#000000">IsIncomplete</text>
</g>
<!-- WaitUpThru -->
<g id="node9" class="node">
<title>WaitUpThru</title>
<ellipse fill="none" stroke="#000000" cx="692" cy="-3025" rx="67.6881" ry="18"/>
<text text-anchor="middle" x="692" y="-3021.3" font-family="Times,serif" font-size="14.00" fill="#000000">WaitUpThru</text>
</g>
<!-- GetMissing&#45;&gt;WaitUpThru -->
<g id="edge36" class="edge">
<title>GetMissing&#45;&gt;WaitUpThru</title>
<path fill="none" stroke="#000000" d="M689,-3684.506C689.5,-3673.7163 690,-3659.8413 690,-3647.5 690,-3647.5 690,-3647.5 690,-3080.5 690,-3071.7261 690.2527,-3062.177 690.5785,-3053.5125"/>
<polygon fill="#000000" stroke="#000000" points="694.0764,-3053.6323 691,-3043.494 687.0826,-3053.338 694.0764,-3053.6323"/>
<text text-anchor="middle" x="737" y="-3360.3" font-family="Times,serif" font-size="14.00" fill="#000000">NeedUpThru</text>
</g>
<!-- Down&#45;&gt;GetInfo -->
<g id="edge17" class="edge">
<title>Down&#45;&gt;GetInfo</title>
<path fill="none" stroke="#000000" d="M836.4457,-4535.9245C848.0359,-4545.8818 860,-4560.1258 860,-4576.5 860,-5290.5 860,-5290.5 860,-5290.5 860,-5304.5615 851.1387,-5316.971 841.1947,-5326.47"/>
<polygon fill="#000000" stroke="#000000" points="838.7632,-5323.9459 833.5081,-5333.1456 843.3533,-5329.231 838.7632,-5323.9459"/>
<text text-anchor="middle" x="903.5" y="-4919.3" font-family="Times,serif" font-size="14.00" fill="#000000">MNotifyRec</text>
</g>
<!-- Incomplete&#45;&gt;Reset -->
<g id="edge63" class="edge">
<title>Incomplete&#45;&gt;Reset</title>
<path fill="none" stroke="#000000" d="M786.69,-3715.3768C778.182,-3717.4225 769.3512,-3719.3959 761,-3721 730.499,-3726.8587 484,-3727.4415 484,-3758.5 484,-3966.5 484,-3966.5 484,-3966.5 484,-3987.1548 431.3017,-4006.3973 391.7554,-4017.9295"/>
<polygon fill="#000000" stroke="#000000" points="390.689,-4014.5939 382.0247,-4020.6915 392.6004,-4021.3279 390.689,-4014.5939"/>
<text text-anchor="middle" x="514" y="-3837.8" font-family="Times,serif" font-size="14.00" fill="#000000">AdvMap</text>
</g>
<!-- Incomplete&#45;&gt;GetLog -->
<g id="edge18" class="edge">
<title>Incomplete&#45;&gt;GetLog</title>
<path fill="none" stroke="#000000" d="M847.8398,-3720.8032C854.9748,-3731.1431 862,-3744.8019 862,-3758.5 862,-4465.5 862,-4465.5 862,-4465.5 862,-4469.2078 775.5967,-4493.1537 719.3231,-4508.3563"/>
<polygon fill="#000000" stroke="#000000" points="718.2824,-4505.0118 709.5379,-4510.9938 720.1042,-4511.7706 718.2824,-4505.0118"/>
<text text-anchor="middle" x="905.5" y="-4150.3" font-family="Times,serif" font-size="14.00" fill="#000000">MNotifyRec</text>
</g>
<!-- Clean -->
<g id="node12" class="node">
<title>Clean</title>
<ellipse fill="none" stroke="#000000" cx="1689" cy="-4923" rx="37.8943" ry="18"/>
<text text-anchor="middle" x="1689" y="-4919.3" font-family="Times,serif" font-size="14.00" fill="#000000">Clean</text>
</g>
<!-- WaitLocalRecoveryReserved -->
<g id="node21" class="node">
<title>WaitLocalRecoveryReserved</title>
<ellipse fill="none" stroke="#000000" cx="1365" cy="-4154" rx="143.7746" ry="18"/>
<text text-anchor="middle" x="1365" y="-4150.3" font-family="Times,serif" font-size="14.00" fill="#000000">WaitLocalRecoveryReserved</text>
</g>
<!-- Clean&#45;&gt;WaitLocalRecoveryReserved -->
<g id="edge6" class="edge">
<title>Clean&#45;&gt;WaitLocalRecoveryReserved</title>
<path fill="none" stroke="#000000" d="M1664.3619,-4909.3637C1650.5213,-4899.7225 1636,-4885.353 1636,-4867.5 1636,-4867.5 1636,-4867.5 1636,-4209.5 1636,-4192.7009 1555.0452,-4177.6859 1481.6287,-4167.5231"/>
<polygon fill="#000000" stroke="#000000" points="1481.7092,-4164.0019 1471.3286,-4166.1216 1480.7654,-4170.938 1481.7092,-4164.0019"/>
<text text-anchor="middle" x="1679.5" y="-4517.3" font-family="Times,serif" font-size="14.00" fill="#000000">DoRecovery</text>
</g>
<!-- Recovered -->
<g id="node13" class="node">
<title>Recovered</title>
<ellipse fill="none" stroke="#000000" cx="1743" cy="-58" rx="59.5901" ry="18"/>
<text text-anchor="middle" x="1743" y="-54.3" font-family="Times,serif" font-size="14.00" fill="#000000">Recovered</text>
</g>
<!-- Recovered&#45;&gt;Clean -->
<g id="edge10" class="edge">
<title>Recovered&#45;&gt;Clean</title>
<path fill="none" stroke="#000000" d="M1771.0519,-74.1056C1783.7649,-83.6602 1796,-97.1125 1796,-113.5 1796,-1335.5 1796,-1335.5 1796,-1335.5 1796,-1402.0139 1782,-1417.9861 1782,-1484.5 1782,-2065.5 1782,-2065.5 1782,-2065.5 1782,-2196.4898 1742,-2226.5102 1742,-2357.5 1742,-4867.5 1742,-4867.5 1742,-4867.5 1742,-4881.8661 1732.5971,-4893.9765 1721.7125,-4903.1827"/>
<polygon fill="#000000" stroke="#000000" points="1719.4511,-4900.5059 1713.6381,-4909.3637 1723.7061,-4906.0643 1719.4511,-4900.5059"/>
<text text-anchor="middle" x="1772.5" y="-2353.8" font-family="Times,serif" font-size="14.00" fill="#000000">GoClean</text>
</g>
<!-- Recovered&#45;&gt;WaitLocalRecoveryReserved -->
<g id="edge7" class="edge">
<title>Recovered&#45;&gt;WaitLocalRecoveryReserved</title>
<path fill="none" stroke="#000000" d="M1739.5,-76.4267C1737.75,-87.194 1736,-101.069 1736,-113.5 1736,-979.5 1736,-979.5 1736,-979.5 1736,-1217.0388 1561,-1246.9612 1561,-1484.5 1561,-1783.5 1561,-1783.5 1561,-1783.5 1561,-1808.8372 1560,-1815.1628 1560,-1840.5 1560,-1954.5 1560,-1954.5 1560,-1954.5 1560,-2078.8398 1390.9944,-1944.3924 1286,-2011 1269.1117,-2021.7138 1275.7119,-2036.0131 1259,-2047 1214.5027,-2076.254 1064.3388,-2066.0413 1026,-2103 987.9588,-2139.6718 994,-2164.6611 994,-2217.5 994,-2331.5 994,-2331.5 994,-2331.5 994,-2371.9151 1007,-2381.0849 1007,-2421.5 1007,-2478.5 1007,-2478.5 1007,-2478.5 1007,-2503.8489 1009,-2510.1511 1009,-2535.5 1009,-2760.5 1009,-2760.5 1009,-2760.5 1009,-2794.2895 1011,-2802.7105 1011,-2836.5 1011,-3061.5 1011,-3061.5 1011,-3061.5 1011,-3220.3166 1124,-3241.6834 1124,-3400.5 1124,-4091.5 1124,-4091.5 1124,-4091.5 1124,-4117.9572 1179.1096,-4133.4029 1236.6226,-4142.3184"/>
<polygon fill="#000000" stroke="#000000" points="1236.2127,-4145.7958 1246.6181,-4143.801 1237.2399,-4138.8716 1236.2127,-4145.7958"/>
<text text-anchor="middle" x="1329.5" y="-2025.3" font-family="Times,serif" font-size="14.00" fill="#000000">DoRecovery</text>
</g>
<!-- Backfilling -->
<g id="node14" class="node">
<title>Backfilling</title>
<ellipse fill="none" stroke="#000000" cx="1585" cy="-715" rx="61.1893" ry="18"/>
<text text-anchor="middle" x="1585" y="-711.3" font-family="Times,serif" font-size="14.00" fill="#000000">Backfilling</text>
</g>
<!-- Backfilling&#45;&gt;Recovered -->
<g id="edge41" class="edge">
<title>Backfilling&#45;&gt;Recovered</title>
<path fill="none" stroke="#000000" d="M1616.5727,-699.4023C1630.6004,-690.0655 1644,-676.6566 1644,-659.5 1644,-659.5 1644,-659.5 1644,-113.5 1644,-92.1411 1661.7501,-78.9194 1682.2184,-70.7734"/>
<polygon fill="#000000" stroke="#000000" points="1683.513,-74.0278 1691.7601,-67.3768 1681.1654,-67.4331 1683.513,-74.0278"/>
<text text-anchor="middle" x="1680.5" y="-382.8" font-family="Times,serif" font-size="14.00" fill="#000000">Backfilled</text>
</g>
<!-- WaitLocalBackfillReserved -->
<g id="node16" class="node">
<title>WaitLocalBackfillReserved</title>
<ellipse fill="none" stroke="#000000" cx="1114" cy="-2029" rx="135.6761" ry="18"/>
<text text-anchor="middle" x="1114" y="-2025.3" font-family="Times,serif" font-size="14.00" fill="#000000">WaitLocalBackfillReserved</text>
</g>
<!-- Backfilling&#45;&gt;WaitLocalBackfillReserved -->
<g id="edge67" class="edge">
<title>Backfilling&#45;&gt;WaitLocalBackfillReserved</title>
<path fill="none" stroke="#000000" d="M1576,-733.0257C1571.5,-743.6592 1567,-757.5342 1567,-770.5 1567,-1017.5 1567,-1017.5 1567,-1017.5 1567,-1153.7512 1481.8752,-1165.1664 1407,-1279 1384.8482,-1312.6777 1372.5953,-1317.2647 1356,-1354 1345.7041,-1376.7909 1342,-1383.4914 1342,-1408.5 1342,-1973.5 1342,-1973.5 1342,-1973.5 1342,-1990.1548 1325.5608,-1987.0634 1310,-1993 1284.018,-2002.9124 1255.0292,-2010.1493 1227.4833,-2015.4135"/>
<polygon fill="#000000" stroke="#000000" points="1226.611,-2012.0151 1217.4083,-2017.2649 1227.8763,-2018.8998 1226.611,-2012.0151"/>
<text text-anchor="middle" x="1457" y="-1368.3" font-family="Times,serif" font-size="14.00" fill="#000000">RemoteReservationRevoked</text>
</g>
<!-- NotBackfilling -->
<g id="node17" class="node">
<title>NotBackfilling</title>
<ellipse fill="none" stroke="#000000" cx="1060" cy="-58" rx="78.7863" ry="18"/>
<text text-anchor="middle" x="1060" y="-54.3" font-family="Times,serif" font-size="14.00" fill="#000000">NotBackfilling</text>
</g>
<!-- Backfilling&#45;&gt;NotBackfilling -->
<g id="edge28" class="edge">
<title>Backfilling&#45;&gt;NotBackfilling</title>
<path fill="none" stroke="#000000" d="M1539.6113,-702.945C1529.8952,-700.6915 1519.6501,-698.5582 1510,-697 1461.3427,-689.1431 1068,-708.7875 1068,-659.5 1068,-659.5 1068,-659.5 1068,-113.5 1068,-104.6411 1066.9891,-95.0675 1065.6861,-86.4067"/>
<polygon fill="#000000" stroke="#000000" points="1069.1136,-85.6835 1064,-76.4044 1062.211,-86.8471 1069.1136,-85.6835"/>
<text text-anchor="middle" x="1196" y="-382.8" font-family="Times,serif" font-size="14.00" fill="#000000">RemoteReservationRevokedTooFull</text>
</g>
<!-- Backfilling&#45;&gt;NotBackfilling -->
<g id="edge29" class="edge">
<title>Backfilling&#45;&gt;NotBackfilling</title>
<path fill="none" stroke="#000000" d="M1535.2475,-704.5003C1512.6999,-696.5333 1491,-682.8105 1491,-659.5 1491,-659.5 1491,-659.5 1491,-113.5 1491,-79.2516 1274.157,-65.6655 1148.0874,-60.6608"/>
<polygon fill="#000000" stroke="#000000" points="1148.1786,-57.1618 1138.0508,-60.2728 1147.9082,-64.1566 1148.1786,-57.1618"/>
<text text-anchor="middle" x="1549.5" y="-382.8" font-family="Times,serif" font-size="14.00" fill="#000000">UnfoundBackfill</text>
</g>
<!-- Backfilling&#45;&gt;NotBackfilling -->
<g id="edge42" class="edge">
<title>Backfilling&#45;&gt;NotBackfilling</title>
<path fill="none" stroke="#000000" d="M1537.5582,-703.5953C1471.5458,-687.6852 1360,-660.6331 1360,-659.5 1360,-659.5 1360,-659.5 1360,-113.5 1360,-91.41 1232.6081,-74.5421 1143.8526,-65.4707"/>
<polygon fill="#000000" stroke="#000000" points="1144.0726,-61.9753 1133.7725,-64.4568 1143.372,-68.9401 1144.0726,-61.9753"/>
<text text-anchor="middle" x="1407.5" y="-382.8" font-family="Times,serif" font-size="14.00" fill="#000000">DeferBackfill</text>
</g>
<!-- WaitRemoteBackfillReserved -->
<g id="node15" class="node">
<title>WaitRemoteBackfillReserved</title>
<ellipse fill="none" stroke="#000000" cx="1130" cy="-1372" rx="146.4744" ry="18"/>
<text text-anchor="middle" x="1130" y="-1368.3" font-family="Times,serif" font-size="14.00" fill="#000000">WaitRemoteBackfillReserved</text>
</g>
<!-- WaitRemoteBackfillReserved&#45;&gt;Backfilling -->
<g id="edge40" class="edge">
<title>WaitRemoteBackfillReserved&#45;&gt;Backfilling</title>
<path fill="none" stroke="#000000" d="M1188.8027,-1355.4312C1218.7833,-1345.1813 1249,-1331.2035 1249,-1316.5 1249,-1316.5 1249,-1316.5 1249,-770.5 1249,-716.3 1436.5887,-742.2129 1490,-733 1500.892,-731.1212 1512.4657,-729.0182 1523.6498,-726.9305"/>
<polygon fill="#000000" stroke="#000000" points="1524.6003,-730.3131 1533.7806,-725.0244 1523.3059,-723.4338 1524.6003,-730.3131"/>
<text text-anchor="middle" x="1323.5" y="-1039.8" font-family="Times,serif" font-size="14.00" fill="#000000">AllBackfillsReserved</text>
</g>
<!-- WaitRemoteBackfillReserved&#45;&gt;NotBackfilling -->
<g id="edge52" class="edge">
<title>WaitRemoteBackfillReserved&#45;&gt;NotBackfilling</title>
<path fill="none" stroke="#000000" d="M1182.859,-1355.1969C1198.7258,-1346.6486 1212,-1334.2061 1212,-1316.5 1212,-1316.5 1212,-1316.5 1212,-1043.5 1212,-947.2031 1229,-923.7969 1229,-827.5 1229,-827.5 1229,-827.5 1229,-751.5 1229,-723.4111 1220.5127,-712.3669 1197,-697 1127.8762,-651.8235 1020,-723.0773 1020,-640.5 1020,-640.5 1020,-640.5 1020,-583.5 1020,-495.8531 1011,-474.1469 1011,-386.5 1011,-386.5 1011,-386.5 1011,-113.5 1011,-101.3495 1017.6814,-90.6048 1026.1098,-81.8844"/>
<polygon fill="#000000" stroke="#000000" points="1028.5324,-84.4112 1033.4922,-75.049 1023.7766,-79.2748 1028.5324,-84.4112"/>
<text text-anchor="middle" x="1355.5" y="-711.3" font-family="Times,serif" font-size="14.00" fill="#000000">RemoteReservationRejectedTooFull</text>
</g>
<!-- WaitRemoteBackfillReserved&#45;&gt;NotBackfilling -->
<g id="edge68" class="edge">
<title>WaitRemoteBackfillReserved&#45;&gt;NotBackfilling</title>
<path fill="none" stroke="#000000" d="M1058.8712,-1356.264C1024.6725,-1346.5708 991,-1332.8702 991,-1316.5 991,-1316.5 991,-1316.5 991,-113.5 991,-99.0106 1000.3526,-87.6674 1012.1712,-79.1177"/>
<polygon fill="#000000" stroke="#000000" points="1014.1562,-82.0023 1020.6627,-73.6407 1010.3619,-76.1198 1014.1562,-82.0023"/>
<text text-anchor="middle" x="1092" y="-711.3" font-family="Times,serif" font-size="14.00" fill="#000000">RemoteReservationRevoked</text>
</g>
<!-- WaitLocalBackfillReserved&#45;&gt;WaitRemoteBackfillReserved -->
<g id="edge55" class="edge">
<title>WaitLocalBackfillReserved&#45;&gt;WaitRemoteBackfillReserved</title>
<path fill="none" stroke="#000000" d="M1116.5,-2010.5375C1117.75,-1999.7583 1119,-1985.8833 1119,-1973.5 1119,-1973.5 1119,-1973.5 1119,-1427.5 1119,-1418.5612 1120.3899,-1408.9645 1122.1817,-1400.307"/>
<polygon fill="#000000" stroke="#000000" points="1125.648,-1400.8525 1124.5,-1390.3201 1118.8293,-1399.2696 1125.648,-1400.8525"/>
<text text-anchor="middle" x="1199.5" y="-1696.8" font-family="Times,serif" font-size="14.00" fill="#000000">LocalBackfillReserved</text>
</g>
<!-- NotBackfilling&#45;&gt;WaitLocalBackfillReserved -->
<g id="edge31" class="edge">
<title>NotBackfilling&#45;&gt;WaitLocalBackfillReserved</title>
<path fill="none" stroke="#000000" d="M1045.1602,-75.8032C1038.0252,-86.1431 1031,-99.8019 1031,-113.5 1031,-360.5 1031,-360.5 1031,-360.5 1031,-434.3861 1040,-452.6139 1040,-526.5 1040,-640.5 1040,-640.5 1040,-640.5 1040,-668.9001 1064.1254,-669.8171 1091,-679 1132.7845,-693.2776 1457.492,-665.0774 1488,-697 1595.6841,-809.6771 1434,-887.6411 1434,-1043.5 1434,-1107.5 1434,-1107.5 1434,-1107.5 1434,-1238.2915 1305,-1241.2085 1305,-1372 1305,-1973.5 1305,-1973.5 1305,-1973.5 1305,-1993.2421 1266.8956,-2006.4206 1224.7258,-2014.9604"/>
<polygon fill="#000000" stroke="#000000" points="1223.9695,-2011.5417 1214.8135,-2016.8725 1225.2954,-2018.415 1223.9695,-2011.5417"/>
<text text-anchor="middle" x="1491" y="-1039.8" font-family="Times,serif" font-size="14.00" fill="#000000">RequestBackfill</text>
</g>
<!-- NotRecovering -->
<g id="node18" class="node">
<title>NotRecovering</title>
<ellipse fill="none" stroke="#000000" cx="1492" cy="-2029" rx="81.4863" ry="18"/>
<text text-anchor="middle" x="1492" y="-2025.3" font-family="Times,serif" font-size="14.00" fill="#000000">NotRecovering</text>
</g>
<!-- NotRecovering&#45;&gt;WaitLocalRecoveryReserved -->
<g id="edge8" class="edge">
<title>NotRecovering&#45;&gt;WaitLocalRecoveryReserved</title>
<path fill="none" stroke="#000000" d="M1502,-2046.9177C1507,-2057.5153 1512,-2071.3903 1512,-2084.5 1512,-4091.5 1512,-4091.5 1512,-4091.5 1512,-4108.6737 1477.5913,-4123.8593 1442.0686,-4134.9606"/>
<polygon fill="#000000" stroke="#000000" points="1440.6115,-4131.7442 1432.0474,-4137.9817 1442.6321,-4138.4462 1440.6115,-4131.7442"/>
<text text-anchor="middle" x="1555.5" y="-3021.3" font-family="Times,serif" font-size="14.00" fill="#000000">DoRecovery</text>
</g>
<!-- Recovering -->
<g id="node19" class="node">
<title>Recovering</title>
<ellipse fill="none" stroke="#000000" cx="1170" cy="-2686" rx="63.8893" ry="18"/>
<text text-anchor="middle" x="1170" y="-2682.3" font-family="Times,serif" font-size="14.00" fill="#000000">Recovering</text>
</g>
<!-- Recovering&#45;&gt;Recovered -->
<g id="edge23" class="edge">
<title>Recovering&#45;&gt;Recovered</title>
<path fill="none" stroke="#000000" d="M1167,-2667.5539C1165.5,-2656.7802 1164,-2642.9052 1164,-2630.5 1164,-2630.5 1164,-2630.5 1164,-2312.5 1164,-2209.9534 1125.7897,-2158.7417 1196,-2084 1252.2167,-2024.1551 1308.4426,-2092.1842 1377,-2047 1393.2648,-2036.2803 1385.8517,-2021.8945 1402,-2011 1470.8062,-1964.5798 1580,-2037.5008 1580,-1954.5 1580,-1954.5 1580,-1954.5 1580,-1840.5 1580,-1815.1628 1581,-1808.8372 1581,-1783.5 1581,-1783.5 1581,-1783.5 1581,-1700.5 1581,-1654.9493 1591,-1644.0507 1591,-1598.5 1591,-1598.5 1591,-1598.5 1591,-1522.5 1591,-1446.9167 1576.702,-1419.7397 1614,-1354 1653.8692,-1283.7284 1756,-1321.2939 1756,-1240.5 1756,-1240.5 1756,-1240.5 1756,-113.5 1756,-104.3955 1754.321,-94.667 1752.1699,-85.9389"/>
<polygon fill="#000000" stroke="#000000" points="1755.5308,-84.9605 1749.5,-76.2496 1748.7823,-86.8201 1755.5308,-84.9605"/>
<text text-anchor="middle" x="1692.5" y="-1368.3" font-family="Times,serif" font-size="14.00" fill="#000000">AllReplicasRecovered</text>
</g>
<!-- Recovering&#45;&gt;WaitLocalBackfillReserved -->
<g id="edge33" class="edge">
<title>Recovering&#45;&gt;WaitLocalBackfillReserved</title>
<path fill="none" stroke="#000000" d="M1118.2415,-2675.3575C1078.7219,-2665.6932 1031,-2649.9883 1031,-2630.5 1031,-2630.5 1031,-2630.5 1031,-2084.5 1031,-2069.9933 1039.8699,-2059.0401 1051.8105,-2050.8674"/>
<polygon fill="#000000" stroke="#000000" points="1053.7303,-2053.7971 1060.4964,-2045.6441 1050.1228,-2047.7982 1053.7303,-2053.7971"/>
<text text-anchor="middle" x="1088" y="-2353.8" font-family="Times,serif" font-size="14.00" fill="#000000">RequestBackfill</text>
</g>
<!-- Recovering&#45;&gt;NotRecovering -->
<g id="edge21" class="edge">
<title>Recovering&#45;&gt;NotRecovering</title>
<path fill="none" stroke="#000000" d="M1185.8633,-2668.3577C1193.4903,-2658.0682 1201,-2644.4061 1201,-2630.5 1201,-2630.5 1201,-2630.5 1201,-2084.5 1201,-2084.3261 1334.1161,-2058.9993 1420.2833,-2042.6233"/>
<polygon fill="#000000" stroke="#000000" points="1421.1157,-2046.0278 1430.2864,-2040.7223 1419.8087,-2039.1509 1421.1157,-2046.0278"/>
<text text-anchor="middle" x="1254.5" y="-2353.8" font-family="Times,serif" font-size="14.00" fill="#000000">DeferRecovery</text>
</g>
<!-- Recovering&#45;&gt;NotRecovering -->
<g id="edge24" class="edge">
<title>Recovering&#45;&gt;NotRecovering</title>
<path fill="none" stroke="#000000" d="M1228.4235,-2678.6094C1278.9724,-2670.5285 1344,-2655.3114 1344,-2630.5 1344,-2630.5 1344,-2630.5 1344,-2084.5 1344,-2066.6776 1382.1022,-2052.6528 1419.6411,-2043.1602"/>
<polygon fill="#000000" stroke="#000000" points="1420.773,-2046.487 1429.6636,-2040.7244 1419.1199,-2039.685 1420.773,-2046.487"/>
<text text-anchor="middle" x="1408.5" y="-2353.8" font-family="Times,serif" font-size="14.00" fill="#000000">UnfoundRecovery</text>
</g>
<!-- WaitRemoteRecoveryReserved -->
<g id="node20" class="node">
<title>WaitRemoteRecoveryReserved</title>
<ellipse fill="none" stroke="#000000" cx="1297" cy="-3364" rx="154.0727" ry="18"/>
<text text-anchor="middle" x="1297" y="-3360.3" font-family="Times,serif" font-size="14.00" fill="#000000">WaitRemoteRecoveryReserved</text>
</g>
<!-- WaitRemoteRecoveryReserved&#45;&gt;Recovering -->
<g id="edge26" class="edge">
<title>WaitRemoteRecoveryReserved&#45;&gt;Recovering</title>
<path fill="none" stroke="#000000" d="M1232.7559,-3347.5641C1201.2558,-3337.5578 1170,-3323.7794 1170,-3308.5 1170,-3308.5 1170,-3308.5 1170,-2741.5 1170,-2732.7318 1170,-2723.1843 1170,-2714.5196"/>
<polygon fill="#000000" stroke="#000000" points="1173.5001,-2714.5 1170,-2704.5 1166.5001,-2714.5 1173.5001,-2714.5"/>
<text text-anchor="middle" x="1244.5" y="-3021.3" font-family="Times,serif" font-size="14.00" fill="#000000">AllRemotesReserved</text>
</g>
<!-- WaitLocalRecoveryReserved&#45;&gt;NotRecovering -->
<g id="edge57" class="edge">
<title>WaitLocalRecoveryReserved&#45;&gt;NotRecovering</title>
<path fill="none" stroke="#000000" d="M1430.9019,-4137.9336C1451.998,-4128.5674 1470,-4113.987 1470,-4091.5 1470,-4091.5 1470,-4091.5 1470,-3364 1470,-3195.6817 1334.0309,-3163.6458 1369,-2999 1396.943,-2867.4351 1492,-2856.9995 1492,-2722.5 1492,-2722.5 1492,-2722.5 1492,-2084.5 1492,-2075.7318 1492,-2066.1843 1492,-2057.5196"/>
<polygon fill="#000000" stroke="#000000" points="1495.5001,-2057.5 1492,-2047.5 1488.5001,-2057.5 1495.5001,-2057.5"/>
<text text-anchor="middle" x="1429.5" y="-3021.3" font-family="Times,serif" font-size="14.00" fill="#000000">RecoveryTooFull</text>
</g>
<!-- WaitLocalRecoveryReserved&#45;&gt;WaitRemoteRecoveryReserved -->
<g id="edge38" class="edge">
<title>WaitLocalRecoveryReserved&#45;&gt;WaitRemoteRecoveryReserved</title>
<path fill="none" stroke="#000000" d="M1314.14,-4137.0839C1295.1014,-4127.285 1278,-4112.6084 1278,-4091.5 1278,-4091.5 1278,-4091.5 1278,-3419.5 1278,-3410.0285 1280.5075,-3400.1141 1283.7006,-3391.3286"/>
<polygon fill="#000000" stroke="#000000" points="1286.9801,-3392.5551 1287.5,-3381.973 1280.4945,-3389.9212 1286.9801,-3392.5551"/>
<text text-anchor="middle" x="1364.5" y="-3699.3" font-family="Times,serif" font-size="14.00" fill="#000000">LocalRecoveryReserved</text>
</g>
<!-- Activating&#45;&gt;Recovered -->
<g id="edge22" class="edge">
<title>Activating&#45;&gt;Recovered</title>
<path fill="none" stroke="#000000" d="M1280.8147,-4919.9877C1392.5224,-4914.2225 1599,-4899.2693 1599,-4867.5 1599,-4867.5 1599,-4867.5 1599,-4521 1599,-4419.1638 1616,-4394.3362 1616,-4292.5 1616,-4292.5 1616,-4292.5 1616,-4228.5 1616,-4195.3859 1617,-4187.1141 1617,-4154 1617,-4154 1617,-4154 1617,-3156.5 1617,-3131.1628 1618,-3124.8372 1618,-3099.5 1618,-3099.5 1618,-3099.5 1618,-3025 1618,-2895.4261 1550,-2871.0739 1550,-2741.5 1550,-2741.5 1550,-2741.5 1550,-2402.5 1550,-2100.2608 1624,-2028.7392 1624,-1726.5 1624,-1726.5 1624,-1726.5 1624,-1636.5 1624,-1508.9427 1731.5281,-1511.2965 1771,-1390 1778.5269,-1366.8699 1776,-1359.8239 1776,-1335.5 1776,-1335.5 1776,-1335.5 1776,-113.5 1776,-102.9065 1771.5033,-92.5713 1765.8296,-83.7472"/>
<polygon fill="#000000" stroke="#000000" points="1768.5632,-81.5534 1759.8867,-75.4732 1762.8778,-85.6371 1768.5632,-81.5534"/>
<text text-anchor="middle" x="1628.5" y="-2353.8" font-family="Times,serif" font-size="14.00" fill="#000000">AllReplicasRecovered</text>
</g>
<!-- Activating&#45;&gt;WaitLocalBackfillReserved -->
<g id="edge32" class="edge">
<title>Activating&#45;&gt;WaitLocalBackfillReserved</title>
<path fill="none" stroke="#000000" d="M1145.2907,-4919.085C1080.4642,-4913.3677 991,-4899.653 991,-4867.5 991,-4867.5 991,-4867.5 991,-2950.5 991,-2899.8255 989,-2887.1745 989,-2836.5 989,-2836.5 989,-2836.5 989,-2649.5 989,-2624.1044 985,-2617.8956 985,-2592.5 985,-2592.5 985,-2592.5 985,-2440.5 985,-2391.8095 974,-2380.1905 974,-2331.5 974,-2331.5 974,-2331.5 974,-2084.5 974,-2069.4539 1002.2977,-2056.7188 1033.4487,-2047.2579"/>
<polygon fill="#000000" stroke="#000000" points="1034.5549,-2050.5813 1043.1797,-2044.4279 1032.6001,-2043.8597 1034.5549,-2050.5813"/>
<text text-anchor="middle" x="1048" y="-3360.3" font-family="Times,serif" font-size="14.00" fill="#000000">RequestBackfill</text>
</g>
<!-- Activating&#45;&gt;WaitLocalRecoveryReserved -->
<g id="edge9" class="edge">
<title>Activating&#45;&gt;WaitLocalRecoveryReserved</title>
<path fill="none" stroke="#000000" d="M1246.3449,-4912.4338C1266.587,-4903.9637 1288,-4889.7462 1288,-4867.5 1288,-4867.5 1288,-4867.5 1288,-4209.5 1288,-4195.5768 1296.3877,-4184.7986 1307.6265,-4176.606"/>
<polygon fill="#000000" stroke="#000000" points="1309.7037,-4179.4319 1316.2347,-4171.0895 1305.9267,-4173.5382 1309.7037,-4179.4319"/>
<text text-anchor="middle" x="1331.5" y="-4517.3" font-family="Times,serif" font-size="14.00" fill="#000000">DoRecovery</text>
</g>
<!-- RepRecovering -->
<g id="node23" class="node">
<title>RepRecovering</title>
<ellipse fill="none" stroke="#000000" cx="2756" cy="-5634" rx="81.4863" ry="18"/>
<text text-anchor="middle" x="2756" y="-5630.3" font-family="Times,serif" font-size="14.00" fill="#000000">RepRecovering</text>
</g>
<!-- RepNotRecovering -->
<g id="node26" class="node">
<title>RepNotRecovering</title>
<polygon fill="none" stroke="#000000" points="2372,-5163 2232.0759,-5145 2372,-5127 2511.9241,-5145 2372,-5163"/>
<polyline fill="none" stroke="#000000" points="2243.9778,-5146.5311 2243.9778,-5143.4689 "/>
<polyline fill="none" stroke="#000000" points="2360.0981,-5128.5311 2383.9019,-5128.5311 "/>
<polyline fill="none" stroke="#000000" points="2500.0222,-5143.4689 2500.0222,-5146.5311 "/>
<polyline fill="none" stroke="#000000" points="2383.9019,-5161.4689 2360.0981,-5161.4689 "/>
<text text-anchor="middle" x="2372" y="-5141.3" font-family="Times,serif" font-size="14.00" fill="#000000">RepNotRecovering</text>
</g>
<!-- RepRecovering&#45;&gt;RepNotRecovering -->
<g id="edge1" class="edge">
<title>RepRecovering&#45;&gt;RepNotRecovering</title>
<path fill="none" stroke="#000000" d="M2698.5139,-5621.1441C2689.3356,-5619.2886 2679.925,-5617.502 2671,-5616 2637.9818,-5610.4435 2372,-5611.9825 2372,-5578.5 2372,-5578.5 2372,-5578.5 2372,-5200.5 2372,-5191.7318 2372,-5182.1843 2372,-5173.5196"/>
<polygon fill="#000000" stroke="#000000" points="2375.5001,-5173.5 2372,-5163.5 2368.5001,-5173.5 2375.5001,-5173.5"/>
<text text-anchor="middle" x="2476" y="-5342.3" font-family="Times,serif" font-size="14.00" fill="#000000">RemoteReservationCanceled</text>
</g>
<!-- RepRecovering&#45;&gt;RepNotRecovering -->
<g id="edge48" class="edge">
<title>RepRecovering&#45;&gt;RepNotRecovering</title>
<path fill="none" stroke="#000000" d="M2696.6274,-5621.6221C2658.4704,-5611.8972 2616,-5596.9328 2616,-5578.5 2616,-5578.5 2616,-5578.5 2616,-5200.5 2616,-5183.3421 2523.0784,-5166.225 2451.9211,-5155.6325"/>
<polygon fill="#000000" stroke="#000000" points="2451.9962,-5152.1062 2441.5941,-5154.1178 2450.9803,-5159.0321 2451.9962,-5152.1062"/>
<text text-anchor="middle" x="2668" y="-5342.3" font-family="Times,serif" font-size="14.00" fill="#000000">RecoveryDone</text>
</g>
<!-- RepRecovering&#45;&gt;RepNotRecovering -->
<g id="edge50" class="edge">
<title>RepRecovering&#45;&gt;RepNotRecovering</title>
<path fill="none" stroke="#000000" d="M2756,-5615.5C2756,-5604.7083 2756,-5590.8333 2756,-5578.5 2756,-5578.5 2756,-5578.5 2756,-5200.5 2756,-5172.7723 2597.1439,-5157.753 2483.7796,-5150.5651"/>
<polygon fill="#000000" stroke="#000000" points="2483.843,-5147.0623 2473.6452,-5149.9355 2483.4089,-5154.0489 2483.843,-5147.0623"/>
<text text-anchor="middle" x="2884.5" y="-5342.3" font-family="Times,serif" font-size="14.00" fill="#000000">RemoteReservationRejectedTooFull</text>
</g>
<!-- RepWaitBackfillReserved -->
<g id="node24" class="node">
<title>RepWaitBackfillReserved</title>
<ellipse fill="none" stroke="#000000" cx="2641" cy="-4722" rx="128.8774" ry="18"/>
<text text-anchor="middle" x="2641" y="-4718.3" font-family="Times,serif" font-size="14.00" fill="#000000">RepWaitBackfillReserved</text>
</g>
<!-- RepWaitBackfillReserved&#45;&gt;RepRecovering -->
<g id="edge64" class="edge">
<title>RepWaitBackfillReserved&#45;&gt;RepRecovering</title>
<path fill="none" stroke="#000000" d="M2766.1996,-4726.2858C2977.9489,-4734.3744 3384,-4753.8773 3384,-4784.5 3384,-4886.5 3384,-4886.5 3384,-4886.5 3384,-4925.0804 3388.2435,-4938.5615 3369,-4972 3315.666,-5064.6756 3241.8966,-5036.4679 3185,-5127 3171.6927,-5148.1742 3171,-5156.4914 3171,-5181.5 3171,-5578.5 3171,-5578.5 3171,-5578.5 3171,-5610.9789 2968.7253,-5625.1589 2846.6107,-5630.7602"/>
<polygon fill="#000000" stroke="#000000" points="2846.3417,-5627.2686 2836.5082,-5631.2124 2846.6548,-5634.2616 2846.3417,-5627.2686"/>
<text text-anchor="middle" x="3273.5" y="-5141.3" font-family="Times,serif" font-size="14.00" fill="#000000">RemoteBackfillReserved</text>
</g>
<!-- RepWaitBackfillReserved&#45;&gt;RepNotRecovering -->
<g id="edge4" class="edge">
<title>RepWaitBackfillReserved&#45;&gt;RepNotRecovering</title>
<path fill="none" stroke="#000000" d="M2524.2167,-4729.6191C2409.0022,-4738.7544 2250,-4756.444 2250,-4784.5 2250,-5089.5 2250,-5089.5 2250,-5089.5 2250,-5105.1049 2283.4888,-5119.5929 2315.3751,-5129.8507"/>
<polygon fill="#000000" stroke="#000000" points="2314.5924,-5133.2725 2325.1805,-5132.8949 2316.668,-5126.5872 2314.5924,-5133.2725"/>
<text text-anchor="middle" x="2354" y="-4919.3" font-family="Times,serif" font-size="14.00" fill="#000000">RemoteReservationCanceled</text>
</g>
<!-- RepWaitBackfillReserved&#45;&gt;RepNotRecovering -->
<g id="edge53" class="edge">
<title>RepWaitBackfillReserved&#45;&gt;RepNotRecovering</title>
<path fill="none" stroke="#000000" d="M2575.6676,-4737.522C2536.4075,-4748.819 2494,-4765.4344 2494,-4784.5 2494,-5089.5 2494,-5089.5 2494,-5089.5 2494,-5105.1049 2460.5112,-5119.5929 2428.6249,-5129.8507"/>
<polygon fill="#000000" stroke="#000000" points="2427.332,-5126.5872 2418.8195,-5132.8949 2429.4076,-5133.2725 2427.332,-5126.5872"/>
<text text-anchor="middle" x="2622.5" y="-4919.3" font-family="Times,serif" font-size="14.00" fill="#000000">RemoteReservationRejectedTooFull</text>
</g>
<!-- RepWaitRecoveryReserved -->
<g id="node25" class="node">
<title>RepWaitRecoveryReserved</title>
<ellipse fill="none" stroke="#000000" cx="3210" cy="-4722" rx="136.4758" ry="18"/>
<text text-anchor="middle" x="3210" y="-4718.3" font-family="Times,serif" font-size="14.00" fill="#000000">RepWaitRecoveryReserved</text>
</g>
<!-- RepWaitRecoveryReserved&#45;&gt;RepRecovering -->
<g id="edge37" class="edge">
<title>RepWaitRecoveryReserved&#45;&gt;RepRecovering</title>
<path fill="none" stroke="#000000" d="M3302.1707,-4735.2913C3352.2258,-4745.1986 3404,-4761.1015 3404,-4784.5 3404,-4886.5 3404,-4886.5 3404,-4886.5 3404,-4993.7579 3388.4483,-5019.8344 3384,-5127 3383.6682,-5134.9931 3384,-5137 3384,-5145 3384,-5578.5 3384,-5578.5 3384,-5578.5 3384,-5605.1611 3020.1172,-5623.3916 2846.3295,-5630.578"/>
<polygon fill="#000000" stroke="#000000" points="2846.0227,-5627.0875 2836.1745,-5630.9943 2846.3095,-5634.0817 2846.0227,-5627.0875"/>
<text text-anchor="middle" x="3478.5" y="-5141.3" font-family="Times,serif" font-size="14.00" fill="#000000">RemoteRecoveryReserved</text>
</g>
<!-- RepWaitRecoveryReserved&#45;&gt;RepNotRecovering -->
<g id="edge3" class="edge">
<title>RepWaitRecoveryReserved&#45;&gt;RepNotRecovering</title>
<path fill="none" stroke="#000000" d="M3093.7169,-4731.4716C3030.8721,-4739.9241 2966,-4755.639 2966,-4784.5 2966,-5089.5 2966,-5089.5 2966,-5089.5 2966,-5113.3169 2659.2706,-5131.5634 2486.6405,-5139.9467"/>
<polygon fill="#000000" stroke="#000000" points="2486.307,-5136.4586 2476.4871,-5140.4359 2486.644,-5143.4505 2486.307,-5136.4586"/>
<text text-anchor="middle" x="3070" y="-4919.3" font-family="Times,serif" font-size="14.00" fill="#000000">RemoteReservationCanceled</text>
</g>
<!-- RepNotRecovering&#45;&gt;RepWaitBackfillReserved -->
<g id="edge39" class="edge">
<title>RepNotRecovering&#45;&gt;RepWaitBackfillReserved</title>
<path fill="none" stroke="#000000" d="M2480.2236,-5140.9179C2603.1854,-5134.7939 2787,-5120.4614 2787,-5089.5 2787,-5089.5 2787,-5089.5 2787,-4784.5 2787,-4767.0992 2751.5077,-4751.6637 2715.522,-4740.4856"/>
<polygon fill="#000000" stroke="#000000" points="2716.4721,-4737.1165 2705.888,-4737.5925 2714.4588,-4743.8208 2716.4721,-4737.1165"/>
<text text-anchor="middle" x="2858.5" y="-4919.3" font-family="Times,serif" font-size="14.00" fill="#000000">RequestBackfillPrio</text>
</g>
<!-- RepNotRecovering&#45;&gt;RepWaitRecoveryReserved -->
<g id="edge25" class="edge">
<title>RepNotRecovering&#45;&gt;RepWaitRecoveryReserved</title>
<path fill="none" stroke="#000000" d="M2496.5522,-5143.0149C2729.9931,-5138.4637 3210,-5124.8121 3210,-5089.5 3210,-5089.5 3210,-5089.5 3210,-4784.5 3210,-4773.2695 3210,-4760.904 3210,-4750.1568"/>
<polygon fill="#000000" stroke="#000000" points="3213.5001,-4750.0511 3210,-4740.0511 3206.5001,-4750.0511 3213.5001,-4750.0511"/>
<text text-anchor="middle" x="3287.5" y="-4919.3" font-family="Times,serif" font-size="14.00" fill="#000000">RequestRecoveryPrio</text>
</g>
<!-- RepNotRecovering&#45;&gt;RepNotRecovering -->
<g id="edge2" class="edge">
<title>RepNotRecovering&#45;&gt;RepNotRecovering</title>
<path fill="none" stroke="#000000" d="M2495.9707,-5147.0769C2515.9849,-5146.7763 2529.7119,-5146.084 2529.7119,-5145 2529.7119,-5144.1108 2520.4748,-5143.4852 2506.1075,-5143.1231"/>
<polygon fill="#000000" stroke="#000000" points="2506.0379,-5139.6211 2495.9707,-5142.9231 2505.8997,-5146.6197 2506.0379,-5139.6211"/>
<text text-anchor="middle" x="2633.7119" y="-5141.3" font-family="Times,serif" font-size="14.00" fill="#000000">RemoteReservationCanceled</text>
</g>
<!-- RepNotRecovering&#45;&gt;RepNotRecovering -->
<g id="edge49" class="edge">
<title>RepNotRecovering&#45;&gt;RepNotRecovering</title>
<path fill="none" stroke="#000000" d="M2482.3069,-5148.8606C2592.1269,-5150.4177 2737.7119,-5149.1309 2737.7119,-5145 2737.7119,-5140.9942 2600.8082,-5139.6628 2492.3741,-5141.0058"/>
<polygon fill="#000000" stroke="#000000" points="2492.2595,-5137.5069 2482.3069,-5141.1394 2492.3525,-5144.5063 2492.2595,-5137.5069"/>
<text text-anchor="middle" x="2789.7119" y="-5141.3" font-family="Times,serif" font-size="14.00" fill="#000000">RecoveryDone</text>
</g>
<!-- RepNotRecovering&#45;&gt;RepNotRecovering -->
<g id="edge51" class="edge">
<title>RepNotRecovering&#45;&gt;RepNotRecovering</title>
<path fill="none" stroke="#000000" d="M2472.6332,-5150.0625C2613.8199,-5153.4375 2841.7119,-5151.75 2841.7119,-5145 2841.7119,-5138.4082 2624.3772,-5136.6444 2482.6992,-5139.7085"/>
<polygon fill="#000000" stroke="#000000" points="2482.551,-5136.2109 2472.6332,-5139.9375 2482.7103,-5143.2091 2482.551,-5136.2109"/>
<text text-anchor="middle" x="2970.2119" y="-5141.3" font-family="Times,serif" font-size="14.00" fill="#000000">RemoteReservationRejectedTooFull</text>
</g>
<!-- WaitDeleteReserved -->
<g id="node28" class="node">
<title>WaitDeleteReserved</title>
<polygon fill="none" stroke="#000000" points="1984,-4941 1835.193,-4923 1984,-4905 2132.807,-4923 1984,-4941"/>
<polyline fill="none" stroke="#000000" points="1847.1061,-4924.441 1847.1061,-4921.559 "/>
<polyline fill="none" stroke="#000000" points="1972.0868,-4906.441 1995.9132,-4906.441 "/>
<polyline fill="none" stroke="#000000" points="2120.8939,-4921.559 2120.8939,-4924.441 "/>
<polyline fill="none" stroke="#000000" points="1995.9132,-4939.559 1972.0868,-4939.559 "/>
<text text-anchor="middle" x="1984" y="-4919.3" font-family="Times,serif" font-size="14.00" fill="#000000">WaitDeleteReserved</text>
</g>
<!-- RepNotRecovering&#45;&gt;WaitDeleteReserved -->
<g id="edge43" class="edge">
<title>RepNotRecovering&#45;&gt;WaitDeleteReserved</title>
<path fill="none" stroke="#000000" d="M2224.0046,-5122.8068C2152.9383,-5111.1034 2083,-5097.5426 2083,-5089.5 2083,-5089.5 2083,-5089.5 2083,-4999.5 2083,-4992.8772 2081.5956,-4986.7468 2079.1215,-4981.0855"/>
<polygon fill="#000000" stroke="#000000" points="2081.9612,-4978.9949 2074.0067,-4971.9966 2075.8608,-4982.428 2081.9612,-4978.9949"/>
<text text-anchor="middle" x="2125" y="-5040.8" font-family="Times,serif" font-size="14.00" fill="#000000">DeleteStart</text>
</g>
<!-- Stray&#45;&gt;RepNotRecovering -->
<g id="edge20" class="edge">
<title>Stray&#45;&gt;RepNotRecovering</title>
<path fill="none" stroke="#000000" d="M1881,-5327.524C1882,-5316.7403 1883,-5302.8653 1883,-5290.5 1883,-5290.5 1883,-5290.5 1883,-5200.5 1883,-5165.0343 2142.4645,-5166.8707 2213.8968,-5163.9117"/>
<polygon fill="#000000" stroke="#000000" points="2214.2048,-5167.4002 2224.0013,-5163.3656 2213.827,-5160.4104 2214.2048,-5167.4002"/>
<text text-anchor="middle" x="1917.5" y="-5241.8" font-family="Times,serif" font-size="14.00" fill="#000000">MLogRec</text>
</g>
<!-- Stray&#45;&gt;RepNotRecovering -->
<g id="edge46" class="edge">
<title>Stray&#45;&gt;RepNotRecovering</title>
<path fill="none" stroke="#000000" d="M1914.839,-5342.3881C1988.6987,-5334.4595 2151,-5314.3265 2151,-5290.5 2151,-5290.5 2151,-5290.5 2151,-5200.5 2151,-5191.5558 2178.5814,-5182.0045 2214.2567,-5173.3914"/>
<polygon fill="#000000" stroke="#000000" points="2215.0641,-5176.7971 2224.0006,-5171.1059 2213.4656,-5169.982 2215.0641,-5176.7971"/>
<text text-anchor="middle" x="2186" y="-5241.8" font-family="Times,serif" font-size="14.00" fill="#000000">MInfoRec</text>
</g>
<!-- Stray&#45;&gt;WaitDeleteReserved -->
<g id="edge44" class="edge">
<title>Stray&#45;&gt;WaitDeleteReserved</title>
<path fill="none" stroke="#000000" d="M1914.2563,-5341.0911C1943.0469,-5334.8606 1979,-5320.9785 1979,-5290.5 1979,-5290.5 1979,-5290.5 1979,-4999.5 1979,-4993.9381 1979.1332,-4988.1535 1979.3562,-4982.3673"/>
<polygon fill="#000000" stroke="#000000" points="1982.8702,-4982.1516 1979.8451,-4971.9978 1975.8779,-4981.8218 1982.8702,-4982.1516"/>
<text text-anchor="middle" x="2021" y="-5141.3" font-family="Times,serif" font-size="14.00" fill="#000000">DeleteStart</text>
</g>
<!-- WaitDeleteReserved&#45;&gt;WaitDeleteReserved -->
<g id="edge35" class="edge">
<title>WaitDeleteReserved&#45;&gt;WaitDeleteReserved</title>
<path fill="none" stroke="#000000" d="M2077.9482,-4929.6856C2117.3879,-4930.168 2150.9035,-4927.9395 2150.9035,-4923 2150.9035,-4918.485 2122.9009,-4916.2351 2087.9674,-4916.2501"/>
<polygon fill="#000000" stroke="#000000" points="2087.9255,-4912.7502 2077.9482,-4916.3144 2087.9704,-4919.75 2087.9255,-4912.7502"/>
<text text-anchor="middle" x="2179.4035" y="-4919.3" font-family="Times,serif" font-size="14.00" fill="#000000">ActMap</text>
</g>
<!-- Deleting -->
<g id="node29" class="node">
<title>Deleting</title>
<ellipse fill="none" stroke="#000000" cx="1965" cy="-4521" rx="50.0912" ry="18"/>
<text text-anchor="middle" x="1965" y="-4517.3" font-family="Times,serif" font-size="14.00" fill="#000000">Deleting</text>
</g>
<!-- WaitDeleteReserved&#45;&gt;Deleting -->
<g id="edge66" class="edge">
<title>WaitDeleteReserved&#45;&gt;Deleting</title>
<path fill="none" stroke="#000000" d="M1930.9563,-4911.2929C1909.6345,-4903.1717 1890,-4889.6734 1890,-4867.5 1890,-4867.5 1890,-4867.5 1890,-4576.5 1890,-4559.1679 1903.1023,-4546.6286 1918.3543,-4537.9035"/>
<polygon fill="#000000" stroke="#000000" points="1920.2081,-4540.8859 1927.5,-4533.1997 1917.0064,-4534.661 1920.2081,-4540.8859"/>
<text text-anchor="middle" x="1947" y="-4718.3" font-family="Times,serif" font-size="14.00" fill="#000000">DeleteReserved</text>
</g>
<!-- Deleting&#45;&gt;WaitDeleteReserved -->
<g id="edge30" class="edge">
<title>Deleting&#45;&gt;WaitDeleteReserved</title>
<path fill="none" stroke="#000000" d="M2002.5,-4533.1997C2021.25,-4541.8912 2040,-4555.7662 2040,-4576.5 2040,-4867.5 2040,-4867.5 2040,-4867.5 2040,-4881.4886 2031.0758,-4893.1532 2020.3525,-4902.12"/>
<polygon fill="#000000" stroke="#000000" points="2018.2079,-4899.3536 2012.3281,-4908.1672 2022.4208,-4904.9439 2018.2079,-4899.3536"/>
<text text-anchor="middle" x="2105.5" y="-4718.3" font-family="Times,serif" font-size="14.00" fill="#000000">DeleteInterrupted</text>
</g>
</g>
</svg>
